name Walk7.mot
datacolumns 19
datarows 20
range 3.58600000 3.60500000
endheader

                time	   L_ground_force_vx	   L_ground_force_vy	   L_ground_force_vz	   L_ground_force_px	   L_ground_force_py	   L_ground_force_pz	   R_ground_force_vx	   R_ground_force_vy	   R_ground_force_vz	   R_ground_force_px	   R_ground_force_py	   R_ground_force_pz	   L_ground_torque_x	   L_ground_torque_y	   L_ground_torque_z	   R_ground_torque_x	   R_ground_torque_y	   R_ground_torque_z	
          3.58600000	         -0.00000000	         -0.00000000	         -0.00000000	          0.00000000	          0.00000000	          0.00000000	         12.27873738	         96.68648307	          3.87867548	          0.34958312	          0.00000000	          0.08364320	          0.00000000	         -0.00000000	          0.00000000	          0.00000000	         -4.38443874	          0.00000000	
          3.58700000	         -0.00000000	         -0.00000000	         -0.00000000	          0.00000000	          0.00000000	          0.00000000	         11.45577768	         91.86403563	          3.64150435	          0.34527055	          0.00000000	          0.08250704	          0.00000000	         -0.00000000	          0.00000000	          0.00000000	         -4.19983967	          0.00000000	
          3.58800000	         -0.00000000	         -0.00000000	         -0.00000000	          0.00000000	          0.00000000	          0.00000000	         10.65820005	         87.17238125	          3.40848710	          0.34069542	          0.00000000	          0.08131189	          0.00000000	         -0.00000000	          0.00000000	          0.00000000	         -4.01841114	          0.00000000	
          3.58900000	         -0.00000000	         -0.00000000	         -0.00000000	          0.00000000	          0.00000000	          0.00000000	          9.88652516	         82.61115925	          3.18016956	          0.33585455	          0.00000000	          0.08005722	          0.00000000	         -0.00000000	          0.00000000	          0.00000000	         -3.84025998	          0.00000000	
          3.59000000	         -0.00000000	         -0.00000000	         -0.00000000	          0.00000000	          0.00000000	          0.00000000	          9.14121621	         78.17996430	          2.95706074	          0.33074564	          0.00000000	          0.07874264	          0.00000000	         -0.00000000	          0.00000000	          0.00000000	         -3.66548654	          0.00000000	
          3.59100000	         -0.00000000	         -0.00000000	         -0.00000000	          0.00000000	          0.00000000	          0.00000000	          8.42267658	         73.87834465	          2.73963221	          0.32536731	          0.00000000	          0.07736799	          0.00000000	         -0.00000000	          0.00000000	          0.00000000	         -3.49418443	          0.00000000	
          3.59200000	         -0.00000000	         -0.00000000	         -0.00000000	          0.00000000	          0.00000000	          0.00000000	          7.73124708	         69.70579991	          2.52831732	          0.31971922	          0.00000000	          0.07593333	          0.00000000	         -0.00000000	          0.00000000	          0.00000000	         -3.32644044	          0.00000000	
          3.59300000	          0.00000000	         -0.00000000	         -0.00000000	          0.00000000	          0.00000000	          0.00000000	          7.06720296	         65.66177920	          2.32351010	          0.31380217	          0.00000000	          0.07443896	          0.00000000	         -0.00000000	          0.00000000	          0.00000000	         -3.16233454	          0.00000000	
          3.59400000	          0.00000000	         -0.00000000	         -0.00000000	          0.00000000	          0.00000000	          0.00000000	          6.43075097	         61.74567998	          2.12556416	          0.30761816	          0.00000000	          0.07288551	          0.00000000	         -0.00000000	          0.00000000	          0.00000000	         -3.00194016	          0.00000000	
          3.59500000	          0.00000000	         -0.00000000	         -0.00000000	          0.00000000	          0.00000000	          0.00000000	          5.82202653	         57.95684797	          1.93479175	          0.30117053	          0.00000000	          0.07127393	          0.00000000	         -0.00000000	          0.00000000	          0.00000000	         -2.84532465	          0.00000000	
          3.59600000	          0.00000000	          0.00000000	         -0.00000000	          0.00000000	          0.00000000	          0.00000000	          5.24109128	         54.29457811	          1.75146291	          0.29446403	          0.00000000	          0.06960554	          0.00000000	         -0.00000000	          0.00000000	          0.00000000	         -2.69254972	          0.00000000	
          3.59700000	          0.00000000	          0.00000000	         -0.00000000	          0.00000000	          0.00000000	          0.00000000	          4.68793127	         50.75811623	          1.57580482	          0.28750498	          0.00000000	          0.06788210	          0.00000000	         -0.00000000	          0.00000000	          0.00000000	         -2.54367192	          0.00000000	
          3.59800000	          0.00000000	          0.00000000	         -0.00000000	          0.00000000	          0.00000000	          0.00000000	          4.16245589	         47.34666077	          1.40800091	          0.28030139	          0.00000000	          0.06610576	          0.00000000	         -0.00000000	          0.00000000	          0.00000000	         -2.39874295	          0.00000000	
          3.59900000	          0.00000000	          0.00000000	         -0.00000000	          0.00000000	          0.00000000	          0.00000000	          3.66449746	         44.05936386	          1.24818987	          0.27286305	          0.00000000	          0.06427911	          0.00000000	         -0.00000000	          0.00000000	          0.00000000	         -2.25781002	          0.00000000	
          3.60000000	          0.00000000	          0.00000000	         -0.00000000	          0.00000000	          0.00000000	          0.00000000	          3.19381127	         40.89533179	          1.09646462	          0.26520179	          0.00000000	          0.06240517	          0.00000000	         -0.00000000	          0.00000000	          0.00000000	         -2.12091633	          0.00000000	
          3.60100000	          0.00000000	          0.00000000	         -0.00000000	          0.00000000	          0.00000000	          0.00000000	          2.75007541	         37.85362593	          0.95287149	          0.25733149	          0.00000000	          0.06048740	          0.00000000	         -0.00000000	          0.00000000	          0.00000000	         -1.98810175	          0.00000000	
          3.60200000	          0.00000000	          0.00000000	         -0.00000000	          0.00000000	          0.00000000	          0.00000000	          2.33289030	         34.93326522	          0.81740988	          0.24926836	          0.00000000	          0.05852966	          0.00000000	         -0.00000000	          0.00000000	          0.00000000	         -1.85940379	          0.00000000	
          3.60300000	          0.00000000	          0.00000000	          0.00000000	          0.00000000	          0.00000000	          0.00000000	          1.94177799	         32.13323046	          0.69003244	          0.24103099	          0.00000000	          0.05653633	          0.00000000	         -0.00000000	          0.00000000	          0.00000000	         -1.73485864	          0.00000000	
          3.60400000	          0.00000000	          0.00000000	          0.00000000	          0.00000000	          0.00000000	          0.00000000	          1.57618155	         29.45246878	          0.57064598	          0.23264056	          0.00000000	          0.05451224	          0.00000000	         -0.00000000	          0.00000000	          0.00000000	         -1.61450205	          0.00000000	
          3.60500000	          0.00000000	          0.00000000	          0.00000000	          0.00000000	          0.00000000	          0.00000000	          1.23546542	         26.88989470	          0.45911305	          0.22412101	          0.00000000	          0.05246284	          0.00000000	         -0.00000000	          0.00000000	          0.00000000	         -1.49836957	          0.00000000	
